<?xml version="1.0" encoding="utf-8"?>
<!-- Generator: Adobe Illustrator 21.0.2, SVG Export Plug-In . SVG Version: 6.00 Build 0)  -->
<svg version="1.1" id="Layer_1" xmlns="http://www.w3.org/2000/svg" xmlns:xlink="http://www.w3.org/1999/xlink" x="0px" y="0px"
	 viewBox="0 0 480 480" style="enable-background:new 0 0 480 480;" xml:space="preserve">
<style type="text/css">
	.st0{fill:#FFFFFF;}
	.st1{fill:#0C7F99;}
</style>
<path class="st1" d="m 188.4,287.1 c 64.4,0 64.4,0 64.4,0 c -15.4,63.8 -25.1,105.4 -25.1,151 c 0,8 0,69.5 23.4,69.5 c 12,0 22.2,-10.8 22.2,-20.5 c 0,-2.8 0,-4 -4,-12.5 c -15.4,-39.3 -15.4,-88.3 -15.4,-92.3 c 0,-3.4 0,-43.9 12,-95.1 c 63.8,0 63.8,0 63.8,0 c 7.4,0 26.2,0 26.2,-18.2 c 0,-12.5 -10.8,-12.5 -21.1,-12.5 c -187.4,0 -187.4,0 -187.4,0 c -13.1,0 -32.5,0 -58.7,27.9 c -14.8,16.5 -33,46.7 -33,50.1 c 2.8,4.6 2.8,4.6 6.3,4.6 c 4,0 4.6,-1.7 7.4,-5.1 c 29.6,-46.7 59.2,-46.7 73.5,-46.7 c 32.5,0 32.5,0 32.5,0 c -12.5,42.7 -26.8,92.3 -73.5,192 c -4.6,9.1 -4.6,10.3 -4.6,13.7 c 0,12 10.3,14.8 15.4,14.8 c 16.5,0 21.1,-14.8, 27.9,-38.7 c 9.1,-29.1 9.1,-30.2 14.8,-53 c 33,-129 33,-129 33,-129 z"/>
</svg>
